<svg xmlns="http://www.w3.org/2000/svg" width="375" viewBox="0 0 375 375" height="375" version="1.0"><g fill="#D32F23" fill-opacity=".42"><g><g><path d="M 37.203125 -44.609375 C 37.148438 -44.234375 37.003906 -43.9375 36.765625 -43.71875 C 36.523438 -43.507812 36.21875 -43.40625 35.84375 -43.40625 L 20.859375 -43.40625 C 20.585938 -43.40625 20.453125 -43.269531 20.453125 -43 L 19.484375 -35.109375 C 19.378906 -34.835938 19.488281 -34.703125 19.8125 -34.703125 L 27.625 -34.703125 C 28 -34.703125 28.28125 -34.59375 28.46875 -34.375 C 28.65625 -34.164062 28.722656 -33.875 28.671875 -33.5 L 27.375 -22.953125 C 27.21875 -22.148438 26.765625 -21.75 26.015625 -21.75 L 18.203125 -21.75 C 17.929688 -21.75 17.796875 -21.613281 17.796875 -21.34375 L 16.828125 -13.375 C 16.722656 -13.101562 16.832031 -12.96875 17.15625 -12.96875 L 32.125 -12.96875 C 32.507812 -12.96875 32.796875 -12.859375 32.984375 -12.640625 C 33.171875 -12.429688 33.234375 -12.132812 33.171875 -11.75 L 31.890625 -1.203125 C 31.835938 -0.828125 31.6875 -0.53125 31.4375 -0.3125 C 31.195312 -0.101562 30.890625 0 30.515625 0 L 1.609375 0 C 1.285156 0 1.03125 -0.101562 0.84375 -0.3125 C 0.65625 -0.53125 0.585938 -0.828125 0.640625 -1.203125 L 7.25 -55.15625 C 7.300781 -55.539062 7.445312 -55.835938 7.6875 -56.046875 C 7.925781 -56.265625 8.207031 -56.375 8.53125 -56.375 L 37.453125 -56.375 C 37.828125 -56.375 38.109375 -56.265625 38.296875 -56.046875 C 38.484375 -55.835938 38.550781 -55.539062 38.5 -55.15625 Z M 37.203125 -44.609375" transform="translate(88.316 189.656)"/></g></g></g><g fill="#D32F23" fill-opacity=".42"><g><g><path d="M 11.84375 0 C 11.082031 0 10.703125 -0.347656 10.703125 -1.046875 L 6.359375 -55.078125 C 6.359375 -55.941406 6.789062 -56.375 7.65625 -56.375 L 21.09375 -56.375 C 21.851562 -56.375 22.203125 -56 22.140625 -55.25 L 22.140625 -26.328125 C 22.085938 -26.171875 22.140625 -26.09375 22.296875 -26.09375 C 22.460938 -26.09375 22.570312 -26.171875 22.625 -26.328125 L 29.390625 -55.25 C 29.554688 -56 30.015625 -56.375 30.765625 -56.375 L 43.8125 -56.375 C 44.1875 -56.375 44.46875 -56.265625 44.65625 -56.046875 C 44.84375 -55.835938 44.851562 -55.515625 44.6875 -55.078125 L 26.984375 -1.046875 C 26.765625 -0.347656 26.28125 0 25.53125 0 Z M 11.84375 0" transform="translate(123.025 189.656)"/></g></g></g><g fill="#D32F23" fill-opacity=".42"><g><g><path d="M 37.203125 -44.609375 C 37.148438 -44.234375 37.003906 -43.9375 36.765625 -43.71875 C 36.523438 -43.507812 36.21875 -43.40625 35.84375 -43.40625 L 20.859375 -43.40625 C 20.585938 -43.40625 20.453125 -43.269531 20.453125 -43 L 19.484375 -35.109375 C 19.378906 -34.835938 19.488281 -34.703125 19.8125 -34.703125 L 27.625 -34.703125 C 28 -34.703125 28.28125 -34.59375 28.46875 -34.375 C 28.65625 -34.164062 28.722656 -33.875 28.671875 -33.5 L 27.375 -22.953125 C 27.21875 -22.148438 26.765625 -21.75 26.015625 -21.75 L 18.203125 -21.75 C 17.929688 -21.75 17.796875 -21.613281 17.796875 -21.34375 L 16.828125 -13.375 C 16.722656 -13.101562 16.832031 -12.96875 17.15625 -12.96875 L 32.125 -12.96875 C 32.507812 -12.96875 32.796875 -12.859375 32.984375 -12.640625 C 33.171875 -12.429688 33.234375 -12.132812 33.171875 -11.75 L 31.890625 -1.203125 C 31.835938 -0.828125 31.6875 -0.53125 31.4375 -0.3125 C 31.195312 -0.101562 30.890625 0 30.515625 0 L 1.609375 0 C 1.285156 0 1.03125 -0.101562 0.84375 -0.3125 C 0.65625 -0.53125 0.585938 -0.828125 0.640625 -1.203125 L 7.25 -55.15625 C 7.300781 -55.539062 7.445312 -55.835938 7.6875 -56.046875 C 7.925781 -56.265625 8.207031 -56.375 8.53125 -56.375 L 37.453125 -56.375 C 37.828125 -56.375 38.109375 -56.265625 38.296875 -56.046875 C 38.484375 -55.835938 38.550781 -55.539062 38.5 -55.15625 Z M 37.203125 -44.609375" transform="translate(163.693 189.656)"/></g></g></g><g fill="#D32F23" fill-opacity=".42"><g><g><path d="M 29.875 -55.15625 C 29.925781 -55.539062 30.070312 -55.835938 30.3125 -56.046875 C 30.5625 -56.265625 30.875 -56.375 31.25 -56.375 L 43.40625 -56.375 C 43.78125 -56.375 44.0625 -56.265625 44.25 -56.046875 C 44.4375 -55.835938 44.503906 -55.539062 44.453125 -55.15625 L 37.765625 -1.203125 C 37.710938 -0.828125 37.578125 -0.53125 37.359375 -0.3125 C 37.148438 -0.101562 36.859375 0 36.484375 0 L 22.546875 0 C 21.898438 0 21.523438 -0.347656 21.421875 -1.046875 L 18.359375 -25.765625 C 18.359375 -25.929688 18.300781 -26.015625 18.1875 -26.015625 C 18.082031 -26.015625 18.03125 -25.929688 18.03125 -25.765625 L 15.140625 -1.203125 C 15.085938 -0.828125 14.9375 -0.53125 14.6875 -0.3125 C 14.445312 -0.101562 14.164062 0 13.84375 0 L 1.609375 0 C 1.285156 0 1.03125 -0.101562 0.84375 -0.3125 C 0.65625 -0.53125 0.585938 -0.828125 0.640625 -1.203125 L 7.25 -55.15625 C 7.300781 -55.539062 7.445312 -55.835938 7.6875 -56.046875 C 7.925781 -56.265625 8.207031 -56.375 8.53125 -56.375 L 22.3125 -56.375 C 22.957031 -56.375 23.332031 -56.023438 23.4375 -55.328125 L 26.578125 -30.4375 C 26.578125 -30.28125 26.628906 -30.226562 26.734375 -30.28125 C 26.835938 -30.332031 26.921875 -30.410156 26.984375 -30.515625 Z M 29.875 -55.15625" transform="translate(198.402 189.656)"/></g></g></g><g fill="#D32F23" fill-opacity=".42"><g><g><path d="M 41.796875 -56.375 C 42.117188 -56.375 42.375 -56.265625 42.5625 -56.046875 C 42.75 -55.835938 42.816406 -55.539062 42.765625 -55.15625 L 41.46875 -44.609375 C 41.414062 -44.234375 41.28125 -43.9375 41.0625 -43.71875 C 40.851562 -43.507812 40.5625 -43.40625 40.1875 -43.40625 L 30.84375 -43.40625 C 30.570312 -43.40625 30.4375 -43.269531 30.4375 -43 L 25.28125 -1.203125 C 25.226562 -0.828125 25.09375 -0.53125 24.875 -0.3125 C 24.664062 -0.101562 24.375 0 24 0 L 11.671875 0 C 11.296875 0 11.015625 -0.101562 10.828125 -0.3125 C 10.640625 -0.53125 10.570312 -0.828125 10.625 -1.203125 L 15.78125 -43 C 15.78125 -43.269531 15.644531 -43.40625 15.375 -43.40625 L 6.359375 -43.40625 C 5.984375 -43.40625 5.703125 -43.507812 5.515625 -43.71875 C 5.328125 -43.9375 5.257812 -44.234375 5.3125 -44.609375 L 6.609375 -55.15625 C 6.660156 -55.539062 6.804688 -55.835938 7.046875 -56.046875 C 7.285156 -56.265625 7.59375 -56.375 7.96875 -56.375 Z M 41.796875 -56.375" transform="translate(239.634 189.656)"/></g></g></g><g fill="#009FB7"><g><g><path d="M 37.203125 -44.609375 C 37.148438 -44.234375 37.003906 -43.9375 36.765625 -43.71875 C 36.523438 -43.507812 36.21875 -43.40625 35.84375 -43.40625 L 20.859375 -43.40625 C 20.585938 -43.40625 20.453125 -43.269531 20.453125 -43 L 19.484375 -35.109375 C 19.378906 -34.835938 19.488281 -34.703125 19.8125 -34.703125 L 27.625 -34.703125 C 28 -34.703125 28.28125 -34.59375 28.46875 -34.375 C 28.65625 -34.164062 28.722656 -33.875 28.671875 -33.5 L 27.375 -22.953125 C 27.21875 -22.148438 26.765625 -21.75 26.015625 -21.75 L 18.203125 -21.75 C 17.929688 -21.75 17.796875 -21.613281 17.796875 -21.34375 L 16.828125 -13.375 C 16.722656 -13.101562 16.832031 -12.96875 17.15625 -12.96875 L 32.125 -12.96875 C 32.507812 -12.96875 32.796875 -12.859375 32.984375 -12.640625 C 33.171875 -12.429688 33.234375 -12.132812 33.171875 -11.75 L 31.890625 -1.203125 C 31.835938 -0.828125 31.6875 -0.53125 31.4375 -0.3125 C 31.195312 -0.101562 30.890625 0 30.515625 0 L 1.609375 0 C 1.285156 0 1.03125 -0.101562 0.84375 -0.3125 C 0.65625 -0.53125 0.585938 -0.828125 0.640625 -1.203125 L 7.25 -55.15625 C 7.300781 -55.539062 7.445312 -55.835938 7.6875 -56.046875 C 7.925781 -56.265625 8.207031 -56.375 8.53125 -56.375 L 37.453125 -56.375 C 37.828125 -56.375 38.109375 -56.265625 38.296875 -56.046875 C 38.484375 -55.835938 38.550781 -55.539062 38.5 -55.15625 Z M 37.203125 -44.609375" transform="translate(85.922 187.5)"/></g></g></g><g fill="#009FB7"><g><g><path d="M 11.84375 0 C 11.082031 0 10.703125 -0.347656 10.703125 -1.046875 L 6.359375 -55.078125 C 6.359375 -55.941406 6.789062 -56.375 7.65625 -56.375 L 21.09375 -56.375 C 21.851562 -56.375 22.203125 -56 22.140625 -55.25 L 22.140625 -26.328125 C 22.085938 -26.171875 22.140625 -26.09375 22.296875 -26.09375 C 22.460938 -26.09375 22.570312 -26.171875 22.625 -26.328125 L 29.390625 -55.25 C 29.554688 -56 30.015625 -56.375 30.765625 -56.375 L 43.8125 -56.375 C 44.1875 -56.375 44.46875 -56.265625 44.65625 -56.046875 C 44.84375 -55.835938 44.851562 -55.515625 44.6875 -55.078125 L 26.984375 -1.046875 C 26.765625 -0.347656 26.28125 0 25.53125 0 Z M 11.84375 0" transform="translate(120.63 187.5)"/></g></g></g><g fill="#009FB7"><g><g><path d="M 37.203125 -44.609375 C 37.148438 -44.234375 37.003906 -43.9375 36.765625 -43.71875 C 36.523438 -43.507812 36.21875 -43.40625 35.84375 -43.40625 L 20.859375 -43.40625 C 20.585938 -43.40625 20.453125 -43.269531 20.453125 -43 L 19.484375 -35.109375 C 19.378906 -34.835938 19.488281 -34.703125 19.8125 -34.703125 L 27.625 -34.703125 C 28 -34.703125 28.28125 -34.59375 28.46875 -34.375 C 28.65625 -34.164062 28.722656 -33.875 28.671875 -33.5 L 27.375 -22.953125 C 27.21875 -22.148438 26.765625 -21.75 26.015625 -21.75 L 18.203125 -21.75 C 17.929688 -21.75 17.796875 -21.613281 17.796875 -21.34375 L 16.828125 -13.375 C 16.722656 -13.101562 16.832031 -12.96875 17.15625 -12.96875 L 32.125 -12.96875 C 32.507812 -12.96875 32.796875 -12.859375 32.984375 -12.640625 C 33.171875 -12.429688 33.234375 -12.132812 33.171875 -11.75 L 31.890625 -1.203125 C 31.835938 -0.828125 31.6875 -0.53125 31.4375 -0.3125 C 31.195312 -0.101562 30.890625 0 30.515625 0 L 1.609375 0 C 1.285156 0 1.03125 -0.101562 0.84375 -0.3125 C 0.65625 -0.53125 0.585938 -0.828125 0.640625 -1.203125 L 7.25 -55.15625 C 7.300781 -55.539062 7.445312 -55.835938 7.6875 -56.046875 C 7.925781 -56.265625 8.207031 -56.375 8.53125 -56.375 L 37.453125 -56.375 C 37.828125 -56.375 38.109375 -56.265625 38.296875 -56.046875 C 38.484375 -55.835938 38.550781 -55.539062 38.5 -55.15625 Z M 37.203125 -44.609375" transform="translate(161.3 187.5)"/></g></g></g><g fill="#009FB7"><g><g><path d="M 29.875 -55.15625 C 29.925781 -55.539062 30.070312 -55.835938 30.3125 -56.046875 C 30.5625 -56.265625 30.875 -56.375 31.25 -56.375 L 43.40625 -56.375 C 43.78125 -56.375 44.0625 -56.265625 44.25 -56.046875 C 44.4375 -55.835938 44.503906 -55.539062 44.453125 -55.15625 L 37.765625 -1.203125 C 37.710938 -0.828125 37.578125 -0.53125 37.359375 -0.3125 C 37.148438 -0.101562 36.859375 0 36.484375 0 L 22.546875 0 C 21.898438 0 21.523438 -0.347656 21.421875 -1.046875 L 18.359375 -25.765625 C 18.359375 -25.929688 18.300781 -26.015625 18.1875 -26.015625 C 18.082031 -26.015625 18.03125 -25.929688 18.03125 -25.765625 L 15.140625 -1.203125 C 15.085938 -0.828125 14.9375 -0.53125 14.6875 -0.3125 C 14.445312 -0.101562 14.164062 0 13.84375 0 L 1.609375 0 C 1.285156 0 1.03125 -0.101562 0.84375 -0.3125 C 0.65625 -0.53125 0.585938 -0.828125 0.640625 -1.203125 L 7.25 -55.15625 C 7.300781 -55.539062 7.445312 -55.835938 7.6875 -56.046875 C 7.925781 -56.265625 8.207031 -56.375 8.53125 -56.375 L 22.3125 -56.375 C 22.957031 -56.375 23.332031 -56.023438 23.4375 -55.328125 L 26.578125 -30.4375 C 26.578125 -30.28125 26.628906 -30.226562 26.734375 -30.28125 C 26.835938 -30.332031 26.921875 -30.410156 26.984375 -30.515625 Z M 29.875 -55.15625" transform="translate(196.008 187.5)"/></g></g></g><g fill="#009FB7"><g><g><path d="M 41.796875 -56.375 C 42.117188 -56.375 42.375 -56.265625 42.5625 -56.046875 C 42.75 -55.835938 42.816406 -55.539062 42.765625 -55.15625 L 41.46875 -44.609375 C 41.414062 -44.234375 41.28125 -43.9375 41.0625 -43.71875 C 40.851562 -43.507812 40.5625 -43.40625 40.1875 -43.40625 L 30.84375 -43.40625 C 30.570312 -43.40625 30.4375 -43.269531 30.4375 -43 L 25.28125 -1.203125 C 25.226562 -0.828125 25.09375 -0.53125 24.875 -0.3125 C 24.664062 -0.101562 24.375 0 24 0 L 11.671875 0 C 11.296875 0 11.015625 -0.101562 10.828125 -0.3125 C 10.640625 -0.53125 10.570312 -0.828125 10.625 -1.203125 L 15.78125 -43 C 15.78125 -43.269531 15.644531 -43.40625 15.375 -43.40625 L 6.359375 -43.40625 C 5.984375 -43.40625 5.703125 -43.507812 5.515625 -43.71875 C 5.328125 -43.9375 5.257812 -44.234375 5.3125 -44.609375 L 6.609375 -55.15625 C 6.660156 -55.539062 6.804688 -55.835938 7.046875 -56.046875 C 7.285156 -56.265625 7.59375 -56.375 7.96875 -56.375 Z M 41.796875 -56.375" transform="translate(237.24 187.5)"/></g></g></g><g fill="#D32F23" fill-opacity=".42"><g><g><path d="M 26.015625 -56.375 C 30.304688 -56.375 33.695312 -54.988281 36.1875 -52.21875 C 38.6875 -49.457031 39.9375 -45.796875 39.9375 -41.234375 C 39.9375 -39.941406 39.882812 -38.945312 39.78125 -38.25 C 39.351562 -34.8125 38.347656 -31.773438 36.765625 -29.140625 C 35.179688 -26.515625 33.140625 -24.488281 30.640625 -23.0625 C 28.140625 -21.644531 25.390625 -20.9375 22.390625 -20.9375 L 17.953125 -20.9375 C 17.691406 -20.9375 17.5625 -20.800781 17.5625 -20.53125 L 15.140625 -1.203125 C 15.085938 -0.828125 14.9375 -0.53125 14.6875 -0.3125 C 14.445312 -0.101562 14.164062 0 13.84375 0 L 1.453125 0 C 1.128906 0 0.875 -0.101562 0.6875 -0.3125 C 0.5 -0.53125 0.429688 -0.828125 0.484375 -1.203125 L 7.09375 -55.15625 C 7.144531 -55.539062 7.289062 -55.835938 7.53125 -56.046875 C 7.769531 -56.265625 8.050781 -56.375 8.375 -56.375 Z M 20.453125 -32.609375 C 21.640625 -32.609375 22.644531 -33.050781 23.46875 -33.9375 C 24.300781 -34.820312 24.828125 -36.15625 25.046875 -37.9375 C 25.097656 -38.25 25.125 -38.703125 25.125 -39.296875 C 25.125 -40.640625 24.828125 -41.660156 24.234375 -42.359375 C 23.648438 -43.054688 22.847656 -43.40625 21.828125 -43.40625 L 20.703125 -43.40625 C 20.429688 -43.40625 20.296875 -43.269531 20.296875 -43 L 19.078125 -33.015625 C 18.972656 -32.742188 19.082031 -32.609375 19.40625 -32.609375 Z M 20.453125 -32.609375" transform="translate(127.21 253.406)"/></g></g></g><g fill="#D32F23" fill-opacity=".42"><g><g><path d="M 21.828125 0 C 21.179688 0 20.804688 -0.347656 20.703125 -1.046875 L 18.359375 -21.34375 C 18.359375 -21.550781 18.28125 -21.65625 18.125 -21.65625 C 17.90625 -21.65625 17.796875 -21.523438 17.796875 -21.265625 L 15.296875 -1.203125 C 15.242188 -0.828125 15.097656 -0.53125 14.859375 -0.3125 C 14.617188 -0.101562 14.335938 0 14.015625 0 L 1.609375 0 C 1.285156 0 1.03125 -0.101562 0.84375 -0.3125 C 0.65625 -0.53125 0.585938 -0.828125 0.640625 -1.203125 L 7.25 -55.15625 C 7.300781 -55.539062 7.445312 -55.835938 7.6875 -56.046875 C 7.925781 -56.265625 8.207031 -56.375 8.53125 -56.375 L 26.171875 -56.375 C 30.460938 -56.375 33.859375 -55.003906 36.359375 -52.265625 C 38.859375 -49.523438 40.109375 -45.898438 40.109375 -41.390625 C 40.109375 -40.097656 40.050781 -39.101562 39.9375 -38.40625 C 39.5625 -35.457031 38.726562 -32.816406 37.4375 -30.484375 C 36.15625 -28.148438 34.492188 -26.253906 32.453125 -24.796875 C 32.179688 -24.640625 32.101562 -24.453125 32.21875 -24.234375 L 35.671875 -1.375 L 35.671875 -1.046875 C 35.671875 -0.722656 35.5625 -0.46875 35.34375 -0.28125 C 35.132812 -0.09375 34.867188 0 34.546875 0 Z M 20.859375 -43.40625 C 20.585938 -43.40625 20.453125 -43.269531 20.453125 -43 L 19.25 -33.578125 C 19.25 -33.304688 19.382812 -33.171875 19.65625 -33.171875 L 20.703125 -33.171875 C 21.984375 -33.171875 23.066406 -33.734375 23.953125 -34.859375 C 24.835938 -35.992188 25.28125 -37.554688 25.28125 -39.546875 C 25.28125 -40.773438 24.984375 -41.722656 24.390625 -42.390625 C 23.804688 -43.066406 23.003906 -43.40625 21.984375 -43.40625 Z M 20.859375 -43.40625" transform="translate(164.819 253.406)"/></g></g></g><g fill="#D32F23" fill-opacity=".42"><g><g><path d="M 1.609375 0 C 1.285156 0 1.03125 -0.101562 0.84375 -0.3125 C 0.65625 -0.53125 0.585938 -0.828125 0.640625 -1.203125 L 7.25 -55.15625 C 7.300781 -55.539062 7.445312 -55.835938 7.6875 -56.046875 C 7.925781 -56.265625 8.207031 -56.375 8.53125 -56.375 L 20.9375 -56.375 C 21.257812 -56.375 21.515625 -56.265625 21.703125 -56.046875 C 21.890625 -55.835938 21.957031 -55.539062 21.90625 -55.15625 L 15.296875 -1.203125 C 15.242188 -0.828125 15.097656 -0.53125 14.859375 -0.3125 C 14.617188 -0.101562 14.335938 0 14.015625 0 Z M 1.609375 0" transform="translate(203.07 253.406)"/></g></g></g><g fill="#D32F23" fill-opacity=".42"><g><g><path d="M 16.75 0.640625 C 12.132812 0.640625 8.484375 -0.550781 5.796875 -2.9375 C 3.109375 -5.320312 1.765625 -8.503906 1.765625 -12.484375 C 1.765625 -12.859375 1.820312 -13.53125 1.9375 -14.5 L 2.25 -16.984375 C 2.300781 -17.367188 2.445312 -17.664062 2.6875 -17.875 C 2.9375 -18.09375 3.222656 -18.203125 3.546875 -18.203125 L 15.78125 -18.203125 C 16.101562 -18.203125 16.359375 -18.09375 16.546875 -17.875 C 16.734375 -17.664062 16.800781 -17.367188 16.75 -16.984375 L 16.59375 -15.21875 C 16.476562 -14.363281 16.582031 -13.664062 16.90625 -13.125 C 17.226562 -12.59375 17.710938 -12.328125 18.359375 -12.328125 C 19.054688 -12.328125 19.644531 -12.617188 20.125 -13.203125 C 20.613281 -13.796875 20.859375 -14.519531 20.859375 -15.375 C 20.859375 -16.1875 20.46875 -17.019531 19.6875 -17.875 C 18.90625 -18.738281 17.414062 -20.054688 15.21875 -21.828125 C 13.070312 -23.597656 11.300781 -25.164062 9.90625 -26.53125 C 8.507812 -27.90625 7.300781 -29.597656 6.28125 -31.609375 C 5.257812 -33.617188 4.75 -35.914062 4.75 -38.5 C 4.75 -38.976562 4.800781 -39.804688 4.90625 -40.984375 C 5.5 -45.765625 7.484375 -49.628906 10.859375 -52.578125 C 14.242188 -55.535156 18.460938 -57.015625 23.515625 -57.015625 C 28.128906 -57.015625 31.765625 -55.78125 34.421875 -53.3125 C 37.078125 -50.84375 38.40625 -47.515625 38.40625 -43.328125 C 38.40625 -42.835938 38.351562 -42.054688 38.25 -40.984375 L 38.015625 -39.21875 C 37.960938 -38.84375 37.8125 -38.546875 37.5625 -38.328125 C 37.320312 -38.117188 37.039062 -38.015625 36.71875 -38.015625 L 24.5625 -38.015625 C 24.238281 -38.015625 23.984375 -38.117188 23.796875 -38.328125 C 23.609375 -38.546875 23.539062 -38.84375 23.59375 -39.21875 L 23.84375 -41.3125 C 23.894531 -42.113281 23.742188 -42.769531 23.390625 -43.28125 C 23.046875 -43.789062 22.550781 -44.046875 21.90625 -44.046875 C 21.15625 -44.046875 20.535156 -43.722656 20.046875 -43.078125 C 19.566406 -42.441406 19.328125 -41.582031 19.328125 -40.5 C 19.328125 -39.59375 19.703125 -38.65625 20.453125 -37.6875 C 21.203125 -36.71875 22.597656 -35.375 24.640625 -33.65625 C 27.378906 -31.351562 29.472656 -29.488281 30.921875 -28.0625 C 32.367188 -26.644531 33.507812 -25.085938 34.34375 -23.390625 C 35.175781 -21.703125 35.59375 -19.785156 35.59375 -17.640625 C 35.59375 -17.203125 35.539062 -16.445312 35.4375 -15.375 C 34.789062 -10.488281 32.757812 -6.597656 29.34375 -3.703125 C 25.9375 -0.804688 21.738281 0.640625 16.75 0.640625 Z M 16.75 0.640625" transform="translate(221.835 253.406)"/></g></g></g><g fill="#D32F23" fill-opacity=".42"><g><g><path d="M 33.09375 -55.484375 C 33.414062 -56.078125 33.898438 -56.375 34.546875 -56.375 L 46.78125 -56.375 C 47.101562 -56.375 47.359375 -56.265625 47.546875 -56.046875 C 47.734375 -55.835938 47.800781 -55.539062 47.75 -55.15625 L 41.15625 -1.203125 C 41.101562 -0.828125 40.953125 -0.53125 40.703125 -0.3125 C 40.460938 -0.101562 40.179688 0 39.859375 0 L 27.46875 0 C 27.144531 0 26.890625 -0.101562 26.703125 -0.3125 C 26.515625 -0.53125 26.445312 -0.828125 26.5 -1.203125 L 30.515625 -34.140625 C 30.578125 -34.359375 30.539062 -34.476562 30.40625 -34.5 C 30.269531 -34.53125 30.144531 -34.46875 30.03125 -34.3125 L 24.5625 -26.421875 L 23.59375 -24.96875 L 23.515625 -24.96875 L 19.40625 -34.3125 C 19.351562 -34.46875 19.269531 -34.53125 19.15625 -34.5 C 19.050781 -34.476562 18.972656 -34.359375 18.921875 -34.140625 L 14.890625 -1.203125 C 14.835938 -0.828125 14.703125 -0.53125 14.484375 -0.3125 C 14.273438 -0.101562 13.984375 0 13.609375 0 L 1.28125 0 C 0.90625 0 0.625 -0.101562 0.4375 -0.3125 C 0.25 -0.53125 0.179688 -0.828125 0.234375 -1.203125 L 6.84375 -55.15625 C 6.894531 -55.539062 7.039062 -55.835938 7.28125 -56.046875 C 7.53125 -56.265625 7.816406 -56.375 8.140625 -56.375 L 20.375 -56.375 C 21.019531 -56.375 21.445312 -56.078125 21.65625 -55.484375 L 25.9375 -45.015625 C 26.039062 -44.796875 26.203125 -44.796875 26.421875 -45.015625 Z M 33.09375 -55.484375" transform="translate(257.993 253.406)"/></g></g></g><g fill="#FF3847"><g><g><path d="M 26.015625 -56.375 C 30.304688 -56.375 33.695312 -54.988281 36.1875 -52.21875 C 38.6875 -49.457031 39.9375 -45.796875 39.9375 -41.234375 C 39.9375 -39.941406 39.882812 -38.945312 39.78125 -38.25 C 39.351562 -34.8125 38.347656 -31.773438 36.765625 -29.140625 C 35.179688 -26.515625 33.140625 -24.488281 30.640625 -23.0625 C 28.140625 -21.644531 25.390625 -20.9375 22.390625 -20.9375 L 17.953125 -20.9375 C 17.691406 -20.9375 17.5625 -20.800781 17.5625 -20.53125 L 15.140625 -1.203125 C 15.085938 -0.828125 14.9375 -0.53125 14.6875 -0.3125 C 14.445312 -0.101562 14.164062 0 13.84375 0 L 1.453125 0 C 1.128906 0 0.875 -0.101562 0.6875 -0.3125 C 0.5 -0.53125 0.429688 -0.828125 0.484375 -1.203125 L 7.09375 -55.15625 C 7.144531 -55.539062 7.289062 -55.835938 7.53125 -56.046875 C 7.769531 -56.265625 8.050781 -56.375 8.375 -56.375 Z M 20.453125 -32.609375 C 21.640625 -32.609375 22.644531 -33.050781 23.46875 -33.9375 C 24.300781 -34.820312 24.828125 -36.15625 25.046875 -37.9375 C 25.097656 -38.25 25.125 -38.703125 25.125 -39.296875 C 25.125 -40.640625 24.828125 -41.660156 24.234375 -42.359375 C 23.648438 -43.054688 22.847656 -43.40625 21.828125 -43.40625 L 20.703125 -43.40625 C 20.429688 -43.40625 20.296875 -43.269531 20.296875 -43 L 19.078125 -33.015625 C 18.972656 -32.742188 19.082031 -32.609375 19.40625 -32.609375 Z M 20.453125 -32.609375" transform="translate(124.816 251.25)"/></g></g></g><g fill="#FF3847"><g><g><path d="M 21.828125 0 C 21.179688 0 20.804688 -0.347656 20.703125 -1.046875 L 18.359375 -21.34375 C 18.359375 -21.550781 18.28125 -21.65625 18.125 -21.65625 C 17.90625 -21.65625 17.796875 -21.523438 17.796875 -21.265625 L 15.296875 -1.203125 C 15.242188 -0.828125 15.097656 -0.53125 14.859375 -0.3125 C 14.617188 -0.101562 14.335938 0 14.015625 0 L 1.609375 0 C 1.285156 0 1.03125 -0.101562 0.84375 -0.3125 C 0.65625 -0.53125 0.585938 -0.828125 0.640625 -1.203125 L 7.25 -55.15625 C 7.300781 -55.539062 7.445312 -55.835938 7.6875 -56.046875 C 7.925781 -56.265625 8.207031 -56.375 8.53125 -56.375 L 26.171875 -56.375 C 30.460938 -56.375 33.859375 -55.003906 36.359375 -52.265625 C 38.859375 -49.523438 40.109375 -45.898438 40.109375 -41.390625 C 40.109375 -40.097656 40.050781 -39.101562 39.9375 -38.40625 C 39.5625 -35.457031 38.726562 -32.816406 37.4375 -30.484375 C 36.15625 -28.148438 34.492188 -26.253906 32.453125 -24.796875 C 32.179688 -24.640625 32.101562 -24.453125 32.21875 -24.234375 L 35.671875 -1.375 L 35.671875 -1.046875 C 35.671875 -0.722656 35.5625 -0.46875 35.34375 -0.28125 C 35.132812 -0.09375 34.867188 0 34.546875 0 Z M 20.859375 -43.40625 C 20.585938 -43.40625 20.453125 -43.269531 20.453125 -43 L 19.25 -33.578125 C 19.25 -33.304688 19.382812 -33.171875 19.65625 -33.171875 L 20.703125 -33.171875 C 21.984375 -33.171875 23.066406 -33.734375 23.953125 -34.859375 C 24.835938 -35.992188 25.28125 -37.554688 25.28125 -39.546875 C 25.28125 -40.773438 24.984375 -41.722656 24.390625 -42.390625 C 23.804688 -43.066406 23.003906 -43.40625 21.984375 -43.40625 Z M 20.859375 -43.40625" transform="translate(162.424 251.25)"/></g></g></g><g fill="#FF3847"><g><g><path d="M 1.609375 0 C 1.285156 0 1.03125 -0.101562 0.84375 -0.3125 C 0.65625 -0.53125 0.585938 -0.828125 0.640625 -1.203125 L 7.25 -55.15625 C 7.300781 -55.539062 7.445312 -55.835938 7.6875 -56.046875 C 7.925781 -56.265625 8.207031 -56.375 8.53125 -56.375 L 20.9375 -56.375 C 21.257812 -56.375 21.515625 -56.265625 21.703125 -56.046875 C 21.890625 -55.835938 21.957031 -55.539062 21.90625 -55.15625 L 15.296875 -1.203125 C 15.242188 -0.828125 15.097656 -0.53125 14.859375 -0.3125 C 14.617188 -0.101562 14.335938 0 14.015625 0 Z M 1.609375 0" transform="translate(200.677 251.25)"/></g></g></g><g fill="#FF3847"><g><g><path d="M 16.75 0.640625 C 12.132812 0.640625 8.484375 -0.550781 5.796875 -2.9375 C 3.109375 -5.320312 1.765625 -8.503906 1.765625 -12.484375 C 1.765625 -12.859375 1.820312 -13.53125 1.9375 -14.5 L 2.25 -16.984375 C 2.300781 -17.367188 2.445312 -17.664062 2.6875 -17.875 C 2.9375 -18.09375 3.222656 -18.203125 3.546875 -18.203125 L 15.78125 -18.203125 C 16.101562 -18.203125 16.359375 -18.09375 16.546875 -17.875 C 16.734375 -17.664062 16.800781 -17.367188 16.75 -16.984375 L 16.59375 -15.21875 C 16.476562 -14.363281 16.582031 -13.664062 16.90625 -13.125 C 17.226562 -12.59375 17.710938 -12.328125 18.359375 -12.328125 C 19.054688 -12.328125 19.644531 -12.617188 20.125 -13.203125 C 20.613281 -13.796875 20.859375 -14.519531 20.859375 -15.375 C 20.859375 -16.1875 20.46875 -17.019531 19.6875 -17.875 C 18.90625 -18.738281 17.414062 -20.054688 15.21875 -21.828125 C 13.070312 -23.597656 11.300781 -25.164062 9.90625 -26.53125 C 8.507812 -27.90625 7.300781 -29.597656 6.28125 -31.609375 C 5.257812 -33.617188 4.75 -35.914062 4.75 -38.5 C 4.75 -38.976562 4.800781 -39.804688 4.90625 -40.984375 C 5.5 -45.765625 7.484375 -49.628906 10.859375 -52.578125 C 14.242188 -55.535156 18.460938 -57.015625 23.515625 -57.015625 C 28.128906 -57.015625 31.765625 -55.78125 34.421875 -53.3125 C 37.078125 -50.84375 38.40625 -47.515625 38.40625 -43.328125 C 38.40625 -42.835938 38.351562 -42.054688 38.25 -40.984375 L 38.015625 -39.21875 C 37.960938 -38.84375 37.8125 -38.546875 37.5625 -38.328125 C 37.320312 -38.117188 37.039062 -38.015625 36.71875 -38.015625 L 24.5625 -38.015625 C 24.238281 -38.015625 23.984375 -38.117188 23.796875 -38.328125 C 23.609375 -38.546875 23.539062 -38.84375 23.59375 -39.21875 L 23.84375 -41.3125 C 23.894531 -42.113281 23.742188 -42.769531 23.390625 -43.28125 C 23.046875 -43.789062 22.550781 -44.046875 21.90625 -44.046875 C 21.15625 -44.046875 20.535156 -43.722656 20.046875 -43.078125 C 19.566406 -42.441406 19.328125 -41.582031 19.328125 -40.5 C 19.328125 -39.59375 19.703125 -38.65625 20.453125 -37.6875 C 21.203125 -36.71875 22.597656 -35.375 24.640625 -33.65625 C 27.378906 -31.351562 29.472656 -29.488281 30.921875 -28.0625 C 32.367188 -26.644531 33.507812 -25.085938 34.34375 -23.390625 C 35.175781 -21.703125 35.59375 -19.785156 35.59375 -17.640625 C 35.59375 -17.203125 35.539062 -16.445312 35.4375 -15.375 C 34.789062 -10.488281 32.757812 -6.597656 29.34375 -3.703125 C 25.9375 -0.804688 21.738281 0.640625 16.75 0.640625 Z M 16.75 0.640625" transform="translate(219.44 251.25)"/></g></g></g><g fill="#FF3847"><g><g><path d="M 33.09375 -55.484375 C 33.414062 -56.078125 33.898438 -56.375 34.546875 -56.375 L 46.78125 -56.375 C 47.101562 -56.375 47.359375 -56.265625 47.546875 -56.046875 C 47.734375 -55.835938 47.800781 -55.539062 47.75 -55.15625 L 41.15625 -1.203125 C 41.101562 -0.828125 40.953125 -0.53125 40.703125 -0.3125 C 40.460938 -0.101562 40.179688 0 39.859375 0 L 27.46875 0 C 27.144531 0 26.890625 -0.101562 26.703125 -0.3125 C 26.515625 -0.53125 26.445312 -0.828125 26.5 -1.203125 L 30.515625 -34.140625 C 30.578125 -34.359375 30.539062 -34.476562 30.40625 -34.5 C 30.269531 -34.53125 30.144531 -34.46875 30.03125 -34.3125 L 24.5625 -26.421875 L 23.59375 -24.96875 L 23.515625 -24.96875 L 19.40625 -34.3125 C 19.351562 -34.46875 19.269531 -34.53125 19.15625 -34.5 C 19.050781 -34.476562 18.972656 -34.359375 18.921875 -34.140625 L 14.890625 -1.203125 C 14.835938 -0.828125 14.703125 -0.53125 14.484375 -0.3125 C 14.273438 -0.101562 13.984375 0 13.609375 0 L 1.28125 0 C 0.90625 0 0.625 -0.101562 0.4375 -0.3125 C 0.25 -0.53125 0.179688 -0.828125 0.234375 -1.203125 L 6.84375 -55.15625 C 6.894531 -55.539062 7.039062 -55.835938 7.28125 -56.046875 C 7.53125 -56.265625 7.816406 -56.375 8.140625 -56.375 L 20.375 -56.375 C 21.019531 -56.375 21.445312 -56.078125 21.65625 -55.484375 L 25.9375 -45.015625 C 26.039062 -44.796875 26.203125 -44.796875 26.421875 -45.015625 Z M 33.09375 -55.484375" transform="translate(255.599 251.25)"/></g></g></g></svg>